# xmcd
# 
# Track frame offsets:
#     150
#     23709
#     37301
#     59857
#     91272
#     110220
#     124952
#     144589
#     157781
#     177452
# 
# Disc length: 2572
# 
# Revision: 1
# Processed by: cddbd v1.5.2PL0 Copyright (c) Steve Scherf et al.
# Submitted via: BonkEnc v1.0.8
# 
DISCID=930a0a0a
DTITLE=Kornstad - Single Engine
DYEAR=2007
DGENRE=Contemporary Jazz
TTITLE0=Standard Arrival Route
TTITLE1=Flutonette
TTITLE2=Sweden
TTITLE3=B
TTITLE4=Turkey, Texas
TTITLE5=Bånsull
TTITLE6=Ardal One Alpha
TTITLE7=Kokarde
TTITLE8=Ambergris
TTITLE9=Crying in the Rain
EXTD=YEAR: 2007
EXTT0=
EXTT1=
EXTT2=
EXTT3=
EXTT4=
EXTT5=
EXTT6=
EXTT7=
EXTT8=
EXTT9=
PLAYORDER=
